<svg width="22" height="27" viewBox="0 0 22 27" fill="none" xmlns="http://www.w3.org/2000/svg">
<path d="M18.1036 14.3535C18.129 12.3783 19.1898 10.5094 20.8725 9.47483C19.811 7.95871 18.0329 6.99744 16.1829 6.93956C14.2098 6.73245 12.297 8.12023 11.2915 8.12023C10.2666 8.12023 8.71854 6.96012 7.05153 6.99442C4.87866 7.06462 2.85299 8.3 1.79585 10.1997C-0.476603 14.1341 1.21844 19.9163 3.39526 23.0966C4.48436 24.6538 5.75722 26.3934 7.42272 26.3317C9.05252 26.2641 9.66122 25.2924 11.6285 25.2924C13.5776 25.2924 14.1486 26.3317 15.8479 26.2925C17.5968 26.2641 18.6986 24.7283 19.7495 23.1562C20.5321 22.0466 21.1342 20.8202 21.5337 19.5225C19.4785 18.6533 18.106 16.585 18.1036 14.3535Z" fill="white"/>
<path d="M14.8939 4.84806C15.8474 3.70337 16.3172 2.23206 16.2034 0.746582C14.7466 0.899591 13.401 1.59585 12.4345 2.69662C11.4895 3.77214 10.9977 5.21756 11.0907 6.64626C12.548 6.66126 13.9807 5.98388 14.8939 4.84806Z" fill="white"/>
</svg>
