<svg width="28" height="32" viewBox="0 0 28 32" fill="none" xmlns="http://www.w3.org/2000/svg">
<g filter="url(#filter0_ii_732_8)">
<path d="M1.38729 1.35714C1.04536 1.71904 0.843261 2.28069 0.843261 3.00801V28.9943C0.843261 29.7228 1.04536 30.2833 1.38729 30.6452L1.47424 30.7298L16.0313 16.1727V16.0012V15.8296L1.47424 1.27136L1.38729 1.35714Z" fill="url(#paint0_linear_732_8)"/>
<path d="M20.8829 21.0267L16.0313 16.1728V16.0012V15.8297L20.8841 10.9769L20.9933 11.0392L26.7426 14.3057C28.3841 15.2387 28.3841 16.765 26.7426 17.6991L20.9933 20.9656L20.8829 21.0267Z" fill="url(#paint1_linear_732_8)"/>
<g filter="url(#filter1_i_732_8)">
<path d="M20.9933 20.9644L16.0301 16.0012L1.3873 30.6452C1.9278 31.2186 2.82197 31.2891 3.82895 30.7181L20.9933 20.9644Z" fill="url(#paint2_linear_732_8)"/>
</g>
<path d="M20.9933 11.038L3.82895 1.28551C2.82197 0.713288 1.9278 0.784964 1.3873 1.35836L16.0313 16.0024L20.9933 11.038Z" fill="url(#paint3_linear_732_8)"/>
</g>
<defs>
<filter id="filter0_ii_732_8" x="0.843262" y="0.890625" width="27.1305" height="30.2219" filterUnits="userSpaceOnUse" color-interpolation-filters="sRGB">
<feFlood flood-opacity="0" result="BackgroundImageFix"/>
<feBlend mode="normal" in="SourceGraphic" in2="BackgroundImageFix" result="shape"/>
<feColorMatrix in="SourceAlpha" type="matrix" values="0 0 0 0 0 0 0 0 0 0 0 0 0 0 0 0 0 0 127 0" result="hardAlpha"/>
<feOffset dy="-0.15"/>
<feComposite in2="hardAlpha" operator="arithmetic" k2="-1" k3="1"/>
<feColorMatrix type="matrix" values="0 0 0 0 0 0 0 0 0 0 0 0 0 0 0 0 0 0 0.12 0"/>
<feBlend mode="normal" in2="shape" result="effect1_innerShadow_732_8"/>
<feColorMatrix in="SourceAlpha" type="matrix" values="0 0 0 0 0 0 0 0 0 0 0 0 0 0 0 0 0 0 127 0" result="hardAlpha"/>
<feOffset dy="0.15"/>
<feComposite in2="hardAlpha" operator="arithmetic" k2="-1" k3="1"/>
<feColorMatrix type="matrix" values="0 0 0 0 1 0 0 0 0 1 0 0 0 0 1 0 0 0 0.25 0"/>
<feBlend mode="normal" in2="effect1_innerShadow_732_8" result="effect2_innerShadow_732_8"/>
</filter>
<filter id="filter1_i_732_8" x="1.3873" y="16.0012" width="19.606" height="15.1113" filterUnits="userSpaceOnUse" color-interpolation-filters="sRGB">
<feFlood flood-opacity="0" result="BackgroundImageFix"/>
<feBlend mode="normal" in="SourceGraphic" in2="BackgroundImageFix" result="shape"/>
<feColorMatrix in="SourceAlpha" type="matrix" values="0 0 0 0 0 0 0 0 0 0 0 0 0 0 0 0 0 0 127 0" result="hardAlpha"/>
<feOffset dy="-0.15"/>
<feComposite in2="hardAlpha" operator="arithmetic" k2="-1" k3="1"/>
<feColorMatrix type="matrix" values="0 0 0 0 0 0 0 0 0 0 0 0 0 0 0 0 0 0 0.08 0"/>
<feBlend mode="normal" in2="shape" result="effect1_innerShadow_732_8"/>
</filter>
<linearGradient id="paint0_linear_732_8" x1="14.7409" y1="2.73306" x2="-4.97792" y2="22.4519" gradientUnits="userSpaceOnUse">
<stop stop-color="#00A0FF"/>
<stop offset="0.0066" stop-color="#00A1FF"/>
<stop offset="0.2601" stop-color="#00BEFF"/>
<stop offset="0.5122" stop-color="#00D2FF"/>
<stop offset="0.7604" stop-color="#00DFFF"/>
<stop offset="1" stop-color="#00E3FF"/>
</linearGradient>
<linearGradient id="paint1_linear_732_8" x1="28.8793" y1="16.0012" x2="0.449167" y2="16.0012" gradientUnits="userSpaceOnUse">
<stop stop-color="#FFE000"/>
<stop offset="0.4087" stop-color="#FFBD00"/>
<stop offset="0.7754" stop-color="#FFA500"/>
<stop offset="1" stop-color="#FF9C00"/>
</linearGradient>
<linearGradient id="paint2_linear_732_8" x1="18.298" y1="18.6966" x2="-8.44322" y2="45.4378" gradientUnits="userSpaceOnUse">
<stop stop-color="#FF3A44"/>
<stop offset="1" stop-color="#C31162"/>
</linearGradient>
<linearGradient id="paint3_linear_732_8" x1="-2.30056" y1="-7.29222" x2="9.64015" y2="4.64848" gradientUnits="userSpaceOnUse">
<stop stop-color="#32A071"/>
<stop offset="0.0685" stop-color="#2DA771"/>
<stop offset="0.4762" stop-color="#15CF74"/>
<stop offset="0.8009" stop-color="#06E775"/>
<stop offset="1" stop-color="#00F076"/>
</linearGradient>
</defs>
</svg>
