<svg width="24" height="24" viewBox="0 0 24 24" fill="none" xmlns="http://www.w3.org/2000/svg">
<path d="M12 7.5C9.519 7.5 7.5 9.519 7.5 12C7.5 14.481 9.519 16.5 12 16.5C14.481 16.5 16.5 14.481 16.5 12C16.5 9.519 14.481 7.5 12 7.5ZM12 15C10.3455 15 9 13.6545 9 12C9 10.3455 10.3455 9 12 9C13.6545 9 15 10.3455 15 12C15 13.6545 13.6545 15 12 15Z" fill="#FF7A50"/>
<path d="M23.25 11.25H20.9625C20.5995 6.885 17.115 3.4005 12.75 3.0375V0.75C12.75 0.336 12.414 0 12 0C11.586 0 11.25 0.336 11.25 0.75V3.0375C6.885 3.4005 3.4005 6.8865 3.0375 11.25H0.75C0.336 11.25 0 11.586 0 12C0 12.414 0.336 12.75 0.75 12.75H3.0375C3.4005 17.115 6.885 20.5995 11.25 20.9625V23.25C11.25 23.664 11.586 24 12 24C12.414 24 12.75 23.664 12.75 23.25V20.9625C17.115 20.5995 20.5995 17.115 20.9625 12.75H23.25C23.664 12.75 24 12.4155 24 12C24 11.5875 23.664 11.25 23.25 11.25ZM12 19.5C7.8645 19.5 4.5 16.1355 4.5 12C4.5 7.8645 7.8645 4.5 12 4.5C16.1355 4.5 19.5 7.8645 19.5 12C19.5 16.1355 16.1355 19.5 12 19.5Z" fill="#FF7A50"/>
</svg>
