<svg width="91" height="32" viewBox="0 0 91 32" fill="none" xmlns="http://www.w3.org/2000/svg">
<path d="M1.37799 0C2.22685 1.80533 2.97959 3.6571 3.63177 5.54633H16.0852V0H1.37799Z" fill="#3D3D3F"/>
<path d="M5.2348 11.0911C5.25551 11.178 5.27621 11.2649 5.29691 11.3518C5.69621 13.0957 6.0112 14.8605 6.2419 16.6359H13.3478V11.0911H5.2348Z" fill="#3D3D3F"/>
<path d="M2.73736 32V24.927C2.73736 23.4108 3.95003 22.1823 5.44663 22.1823C5.2041 14.4876 3.35109 6.92467 0 0V32H2.73736Z" fill="#3D3D3F"/>
<path d="M53.9975 31.1475C53.4 29.7602 52.6251 28.4762 51.6919 27.3331L51.2438 26.7832C50.7366 26.8851 50.2116 26.9405 49.6748 26.9405C45.9214 26.9405 42.77 24.3322 41.8886 20.8084C40.2056 20.311 38.5819 20.0054 37.1666 19.8181C38.3467 21.2279 43.2536 26.7862 48.6765 28.5676C48.6765 28.5676 42.2598 27.6312 36.7717 20.2586C37.486 26.8162 42.9711 31.9176 49.6348 31.9176C51.1669 31.9161 52.634 31.6434 53.9975 31.1475Z" fill="#FF7A50"/>
<path d="M57.7048 18.8038C57.7048 22.0669 55.8074 24.882 53.07 26.1779C54.1126 27.4574 54.9703 28.8732 55.6358 30.4223C59.7604 28.2305 62.5761 23.8512 62.5761 18.8038C62.5761 13.7564 59.7618 9.37717 55.6358 7.1853C54.9689 8.73294 54.1126 10.1502 53.07 11.4297C55.8089 12.7271 57.7048 15.5407 57.7048 18.8038Z" fill="#3D3D3F"/>
<path d="M20.9554 18.8038C20.9554 22.0669 22.8528 24.882 25.5901 26.1779C24.5475 27.4574 23.6898 28.8732 23.0243 30.4223C18.8998 28.2305 16.084 23.8512 16.084 18.8038C16.084 13.7564 18.8983 9.37717 23.0243 7.1853C23.6913 8.73294 24.5475 10.1502 25.5901 11.4297C22.8528 12.7271 20.9554 15.5407 20.9554 18.8038Z" fill="#3D3D3F"/>
<path d="M51.6921 10.2761C52.6253 9.13298 53.4002 7.84902 53.9977 6.46169V6.46019C52.6342 5.96579 51.1657 5.69312 49.6336 5.69312C46.0858 5.69312 42.8737 7.13888 40.5356 9.48056C41.1553 10.2656 41.6995 11.1166 42.155 12.023C45.7471 9.47307 48.6753 9.04308 48.6753 9.04308C46.4333 9.7787 44.2801 11.1615 42.4419 12.6298C42.6711 13.1422 42.8722 13.671 43.0438 14.2149C44.4901 12.0754 46.9184 10.6701 49.672 10.6701C50.2088 10.6701 50.7338 10.7256 51.2411 10.8274L51.6921 10.2761Z" fill="#3D3D3F"/>
<path d="M29.9839 9.04159C29.9839 9.04159 36.4007 9.97796 41.8887 17.3506C41.1759 10.7945 35.6893 5.69312 29.0271 5.69312C27.495 5.69312 26.0265 5.96579 24.663 6.46019V6.46169C25.2604 7.84902 26.0353 9.13298 26.9685 10.2761L27.4166 10.8259C27.9238 10.7241 28.4488 10.6686 28.9857 10.6686C32.739 10.6686 35.8905 13.277 36.7719 16.8008C38.4533 17.2967 40.0756 17.6023 41.4924 17.7896C40.3108 16.3783 35.4054 10.8229 29.9839 9.04159Z" fill="#FF7A50"/>
<path d="M36.5056 25.5864C32.9134 28.1363 29.9853 28.5663 29.9853 28.5663C32.2272 27.8307 34.3805 26.4479 36.2187 24.9796C35.9894 24.4672 35.7883 23.9384 35.6168 23.3945C34.1705 25.534 31.7422 26.9393 28.9885 26.9393C28.4517 26.9393 27.9267 26.8838 27.4195 26.782L26.9714 27.3318C26.0382 28.4749 25.2633 29.7589 24.6658 31.1462V31.1477C26.0293 31.6421 27.4978 31.9148 29.0299 31.9148C32.5777 31.9148 35.7898 30.469 38.1279 28.1273C37.5038 27.3438 36.9611 26.4928 36.5056 25.5864Z" fill="#3D3D3F"/>
<path d="M88.5082 11.5092L79.6601 10.9594C79.5818 10.9549 79.5019 10.9519 79.4235 10.9519C78.5229 10.9519 77.6992 11.2635 77.1032 11.8313C77.0899 11.8448 77.0751 11.8568 77.0618 11.8688H78.3218C79.3747 11.8688 80.3878 12.092 81.3313 12.534C81.9879 12.8411 82.5957 13.2471 83.1369 13.7415C84.672 15.1424 85.5164 17.0661 85.5164 19.1575C85.5164 21.1052 84.7681 22.9345 83.4091 24.3113C82.05 25.6882 80.2428 26.4463 78.3218 26.4463H73.7521C73.7565 26.5631 73.758 26.6785 73.758 26.7968C73.758 28.8838 73.1236 30.7311 72.1002 32.0016H78.3218C81.8222 32.0016 84.9914 30.5648 87.2866 28.2396C89.5803 25.9159 91 22.7038 91 19.1575C91 16.2915 90.0728 13.6457 88.5082 11.5092Z" fill="#3D3D3F"/>
<path d="M69.3748 18.8653L69.7253 13.0837H67.609L67.9595 18.8653C68.0423 20.2212 67.6075 21.568 66.7143 22.5823C65.8817 23.5277 65.3405 25.0633 65.3405 26.7952C65.3405 29.6703 66.8297 32 68.6664 32C70.5032 32 71.9924 29.6688 71.9924 26.7952C71.9924 25.0618 71.4511 23.5277 70.6185 22.5823C69.7268 21.5665 69.292 20.2212 69.3748 18.8653Z" fill="#3D3D3F"/>
<path d="M83.6303 7.4894L79.7705 7.72911C78.3537 7.81751 76.9325 7.36056 75.8973 6.37624C75.8737 6.35377 75.85 6.33279 75.8263 6.31182C75.3324 5.87285 74.6861 5.60767 73.9792 5.60767H65.3486V6.41969H72.9544C73.1762 6.41969 73.3552 6.60097 73.3552 6.8257C73.3552 6.93807 73.3093 7.03994 73.2383 7.11335C73.1659 7.18677 73.0653 7.23171 72.9544 7.23171H65.3486V8.04373H72.9544C73.1762 8.04373 73.3552 8.22502 73.3552 8.44975C73.3552 8.56211 73.3093 8.66399 73.2383 8.7374C73.1659 8.81081 73.0653 8.85576 72.9544 8.85576H65.3486V9.66778H72.9544C73.1762 9.66778 73.3552 9.84906 73.3552 10.0738C73.3552 10.1862 73.3093 10.288 73.2383 10.3614C73.1659 10.4349 73.0653 10.4798 72.9544 10.4798H65.3486V11.2918H73.9792C74.7216 11.2918 75.396 10.9997 75.8973 10.5233C76.9325 9.53894 78.3522 9.08348 79.7705 9.17038L86.8069 9.60785C85.8648 8.75238 84.7956 8.03475 83.6303 7.4894Z" fill="#3D3D3F"/>
</svg>
